General
Complete name                    : Tropa de Elite .mkv
Format                           : Matroska
File size                        : 1.58 GiB
Duration                         : 1h 50mn
Overall bit rate                 : 2 048 Kbps
Writing application              : HandBrake 0.9.4

Video
ID                               : 1
Format                           : AVC
Duration                         : 1h 50mn
Bit rate                         : 1 559 Kbps
Nominal bit rate                 : 1 572 Kbps
Width                            : 702 pixels
Height                           : 552 pixels
Display aspect ratio             : 16:9
Resolution                       : 8 bits
Colorimetry                      : 4:2:0
Scan type                        : Progressive
Bits/(Pixel*Frame)               : 0.161
Stream size                      : 1.20 GiB (76%)
Writing library                  : x264 core 79

Audio
ID                               : 2
Format                           : AC-3
Format/Info                      : Audio Coding 3
Codec ID                         : A_AC3
Duration                         : 1h 50mn
Bit rate mode                    : Constant
Bit rate                         : 448 Kbps
Channel(s)                       : 6 channels
Channel positions                : Front: L C R, Side: L R, LFE
Sampling rate                    : 48.0 KHz
Stream size                      : 354 MiB (22%)
Language                         : Portuguese

Text #1
Language                         : Swedish

Text #2
Language                         : Norwegian

Text #3
Language                         : Danish

Text #4
Language                         : Finnish

Menu
00:00:00.000                     : Chapter 01

